<svg xmlns="http://www.w3.org/2000/svg" width="18.787" height="16.7" viewBox="0 0 18.787 16.7"><defs><style>.a{fill:#212741;}</style></defs><path class="a" d="M2.609,11.481H.522A.522.522,0,0,0,0,12v4.175a.522.522,0,0,0,.522.522H2.609a.522.522,0,0,0,.522-.522V12A.522.522,0,0,0,2.609,11.481Zm-.522,4.175H1.044V12.525H2.087ZM18.266,6.262H16.178a.522.522,0,0,0-.522.522v9.394a.522.522,0,0,0,.522.522h2.087a.522.522,0,0,0,.522-.522V6.784A.522.522,0,0,0,18.266,6.262Zm-.522,9.394H16.7V7.306h1.044ZM16.4,2.892a1.562,1.562,0,1,0-.743-1.327,1.549,1.549,0,0,0,.092.51L12.826,4.414a1.536,1.536,0,0,0-1.646,0L8.258,2.076a1.547,1.547,0,0,0,.092-.51,1.566,1.566,0,1,0-2.975.671L2.237,5.375a1.562,1.562,0,1,0,.894,1.409,1.55,1.55,0,0,0-.157-.671L6.113,2.975a1.528,1.528,0,0,0,1.494-.083L10.53,5.23a1.566,1.566,0,1,0,2.947,0L16.4,2.892Zm.823-1.849a.522.522,0,1,1-.522.522A.523.523,0,0,1,17.222,1.044ZM1.566,7.306a.522.522,0,1,1,.522-.522A.523.523,0,0,1,1.566,7.306ZM6.784,2.087a.522.522,0,1,1,.522-.522A.523.523,0,0,1,6.784,2.087ZM12,6.262a.522.522,0,1,1,.522-.522A.523.523,0,0,1,12,6.262Zm-4.175,0H5.741a.522.522,0,0,0-.522.522v9.394a.522.522,0,0,0,.522.522H7.828a.522.522,0,0,0,.522-.522V6.784A.522.522,0,0,0,7.828,6.262Zm-.522,9.394H6.262V7.306H7.306Zm5.741-5.219H10.959a.522.522,0,0,0-.522.522v5.219a.522.522,0,0,0,.522.522h2.087a.522.522,0,0,0,.522-.522V10.959A.522.522,0,0,0,13.047,10.437Zm-.522,5.219H11.481V11.481h1.044Z"/></svg>