<svg xmlns="http://www.w3.org/2000/svg" width="52.018" height="38.79" viewBox="0 0 52.018 38.79">
  <g id="Group_538" data-name="Group 538" transform="translate(-6559.545 -1541.955)">
    <path id="Subtraction_5" data-name="Subtraction 5" d="M39.923,33.874H3.629A3.634,3.634,0,0,1,0,30.245V11.837A9.392,9.392,0,0,0,11.033,7.259h30.1V3.629a1.211,1.211,0,0,0-1.21-1.21H12.117A9.372,9.372,0,0,0,11.684,0H39.923a3.634,3.634,0,0,1,3.629,3.629V30.245A3.634,3.634,0,0,1,39.923,33.874ZM2.419,14.518V30.245a1.211,1.211,0,0,0,1.21,1.21H39.923a1.211,1.211,0,0,0,1.21-1.21V14.518Zm25.708,12.1H17.845a.908.908,0,0,1-.908-.907v-.6a.908.908,0,0,1,.908-.907H28.128a.908.908,0,0,1,.907.907v.6A.908.908,0,0,1,28.128,26.615Zm-14.518,0H8.166a.908.908,0,0,1-.907-.907v-.6a.908.908,0,0,1,.907-.907H13.61a.908.908,0,0,1,.907.907v.6A.908.908,0,0,1,13.61,26.615Z" transform="translate(6568.01 1546.871)" fill="#ff5119"/>
    <path id="Path_2190" data-name="Path 2190" d="M0,0H19.367V19.367H0Z" transform="translate(6559.545 1541.973)" fill="none"/>
    <path id="Path_2191" data-name="Path 2191" d="M10.877,6.035H9.263V9.263H6.035v1.614H9.263V14.1h1.614V10.877H14.1V9.263H10.877ZM10.07,2a8.07,8.07,0,1,0,8.07,8.07A8.073,8.073,0,0,0,10.07,2Zm0,14.526a6.456,6.456,0,1,1,6.456-6.456A6.464,6.464,0,0,1,10.07,16.526Z" transform="translate(6560.792 1539.955)" fill="#ff5119"/>
  </g>
</svg>
