<svg xmlns="http://www.w3.org/2000/svg" height="406pt" version="1.1" viewBox="0 -20 406 406" width="406pt">
<g id="surface1">
<path d="M 334.199219 251 L 396 251 L 396 354.5 L 334.199219 354.5 Z M 334.199219 251 " style=" stroke:none;fill-rule:nonzero;fill:rgb(87.058824%,100%,90.980392%);fill-opacity:1;" />
<path d="M 334.199219 9.5 L 396 9.5 L 396 251 L 334.199219 251 Z M 334.199219 9.5 " style=" stroke:none;fill-rule:nonzero;fill:rgb(46.666667%,96.862745%,66.666667%);fill-opacity:1;" />
<path d="M 226.101562 251 L 286.800781 251 L 286.800781 354.5 L 226.101562 354.5 Z M 226.101562 251 " style=" stroke:none;fill-rule:nonzero;fill:rgb(87.058824%,100%,90.980392%);fill-opacity:1;" />
<path d="M 226.101562 55.5 L 286.800781 55.5 L 286.800781 251 L 226.101562 251 Z M 226.101562 55.5 " style=" stroke:none;fill-rule:nonzero;fill:rgb(46.666667%,96.862745%,66.666667%);fill-opacity:1;" />
<path d="M 118 251 L 178.699219 251 L 178.699219 354.5 L 118 354.5 Z M 118 251 " style=" stroke:none;fill-rule:nonzero;fill:rgb(87.058824%,100%,90.980392%);fill-opacity:1;" />
<path d="M 118 101.5 L 178.699219 101.5 L 178.699219 251 L 118 251 Z M 118 101.5 " style=" stroke:none;fill-rule:nonzero;fill:rgb(46.666667%,96.862745%,66.666667%);fill-opacity:1;" />
<path d="M 9.898438 251 L 70.601562 251 L 70.601562 354.5 L 9.898438 354.5 Z M 9.898438 251 " style=" stroke:none;fill-rule:nonzero;fill:rgb(87.058824%,100%,90.980392%);fill-opacity:1;" />
<path d="M 9.898438 182 L 70.601562 182 L 70.601562 251 L 9.898438 251 Z M 9.898438 182 " style=" stroke:none;fill-rule:nonzero;fill:rgb(46.666667%,96.862745%,66.666667%);fill-opacity:1;" />
<path d="M 286.800781 46 L 226.101562 46 C 220.601562 46 216 50 216 55.5 L 216 354.5 C 216 360 220.601562 365 226.101562 365 L 286.800781 365 C 292.300781 365 297 360 297 354.5 L 297 55.5 C 297 50 292.300781 46 286.800781 46 Z M 236 66 L 277 66 L 277 241 L 236 241 Z M 236 345 L 236 261 L 277 261 L 277 345 Z M 236 345 " style=" stroke:none;fill-rule:nonzero;fill:rgb(14.117647%,70.196078%,38.039216%);fill-opacity:1;" />
<path d="M 396.101562 0 L 334.300781 0 C 328.800781 0 324.101562 4 324.101562 9.5 L 324.101562 354.5 C 324.101562 360 328.800781 365 334.300781 365 L 396.101562 365 C 401.601562 365 406 360 406 354.5 L 406 9.5 C 406 4 401.601562 0 396.101562 0 Z M 344 20 L 386 20 L 386 241 L 344 241 Z M 344 345 L 344 261 L 386 261 L 386 345 Z M 344 345 " style=" stroke:none;fill-rule:nonzero;fill:rgb(14.117647%,70.196078%,38.039216%);fill-opacity:1;" />
<path d="M 178.699219 92 L 118 92 C 112.5 92 108 96 108 101.5 L 108 354.5 C 108 360 112.5 365 118 365 L 178.699219 365 C 184.398438 364.800781 188.898438 360.199219 189 354.5 L 189 101.5 C 189 96 184.199219 92 178.699219 92 Z M 128 112 L 169 112 L 169 241 L 128 241 Z M 128 345 L 128 261 L 169 261 L 169 345 Z M 128 345 " style=" stroke:none;fill-rule:nonzero;fill:rgb(14.117647%,70.196078%,38.039216%);fill-opacity:1;" />
<path d="M 70.601562 172 L 9.898438 172 C 4.398438 172 0 176.5 0 182 L 0 354.5 C 0 360 4.398438 365 9.898438 365 L 70.601562 365 C 76.300781 364.800781 80.800781 360.199219 81 354.5 L 81 182 C 81 176.5 76.101562 172 70.601562 172 Z M 20 192 L 61 192 L 61 241 L 20 241 Z M 20 345 L 20 261 L 61 261 L 61 345 Z M 20 345 " style=" stroke:none;fill-rule:nonzero;fill:rgb(14.117647%,70.196078%,38.039216%);fill-opacity:1;" />
</g>
</svg>