<svg xmlns="http://www.w3.org/2000/svg" width="19.911" height="22.799" viewBox="0 0 19.911 22.799"><defs><style>.a{fill:#ff5119;}</style></defs><path class="a" d="M10.509,11.975a1.42,1.42,0,1,0,.756.756A1.42,1.42,0,0,0,10.509,11.975Zm.437-7.223H8.963a.714.714,0,0,0-.707.782L8.826,9.8a.711.711,0,0,0,.707.64h.844a.711.711,0,0,0,.707-.64l.569-4.267a.711.711,0,0,0-.707-.782ZM9.955,21.819A2.844,2.844,0,0,0,12.8,18.975H7.111a2.844,2.844,0,0,0,2.844,2.844Zm9.572-6.653c-.858-.923-2.465-2.311-2.465-6.858a7.018,7.018,0,0,0-5.686-6.9V.486a1.422,1.422,0,1,0-2.843,0v.926a7.018,7.018,0,0,0-5.685,6.9c0,4.547-1.607,5.935-2.465,6.858A1.385,1.385,0,0,0,0,16.13a1.424,1.424,0,0,0,1.426,1.422H18.484A1.422,1.422,0,0,0,19.91,16.13,1.385,1.385,0,0,0,19.527,15.166ZM3,15.419c.943-1.244,1.974-3.3,1.979-7.085,0-.009,0-.017,0-.026a4.978,4.978,0,0,1,9.955,0c0,.009,0,.017,0,.026.005,3.783,1.036,5.843,1.979,7.085Z" transform="translate(0 0.98)"/></svg>