<svg xmlns="http://www.w3.org/2000/svg" width="18" height="18" viewBox="0 0 18 18"><defs><style>.a{fill:#ff5119;}</style></defs><path class="a" d="M8.994,5.975a3.506,3.506,0,0,0-2.509.99,3.251,3.251,0,0,0-.959,2.371,24.171,24.171,0,0,1-.492,5.252.562.562,0,0,0,.436.665.569.569,0,0,0,.665-.437,25.313,25.313,0,0,0,.516-5.5,2.137,2.137,0,0,1,.63-1.558,2.411,2.411,0,0,1,4.068,1.661,29.567,29.567,0,0,1-.391,5.276.562.562,0,0,0,.463.647.533.533,0,0,0,.094.008.561.561,0,0,0,.554-.471A30.761,30.761,0,0,0,12.474,9.4a3.526,3.526,0,0,0-3.48-3.43ZM8.991,9a.563.563,0,0,0-.554.571,26.464,26.464,0,0,1-.977,7.561l-.043.152A.57.57,0,0,0,7.959,18a.563.563,0,0,0,.542-.41l.043-.154A27.547,27.547,0,0,0,9.562,9.555.581.581,0,0,0,8.991,9ZM3.954,5.267A6,6,0,0,0,2.615,9.139a21.37,21.37,0,0,1-.337,4.135.563.563,0,0,0,.454.654.578.578,0,0,0,.1.009.564.564,0,0,0,.553-.462A22.565,22.565,0,0,0,3.74,9.122,4.809,4.809,0,0,1,4.827,5.977a.562.562,0,1,0-.873-.71ZM17.99,8.889a8.629,8.629,0,0,0-.2-1.728.563.563,0,0,0-1.1.243,7.524,7.524,0,0,1,.176,1.5q.006.4,0,.808a.563.563,0,0,0,.558.567h0a.562.562,0,0,0,.563-.558Q18,9.306,17.99,8.889ZM8.874,0A8.718,8.718,0,0,0,2.466,2.564,8.363,8.363,0,0,0,0,8.656q.006.4-.006.8a.563.563,0,0,0,.547.578H.556a.563.563,0,0,0,.563-.547q.012-.422.006-.845A7.247,7.247,0,0,1,3.261,3.359a7.7,7.7,0,0,1,5.6-2.232,8.233,8.233,0,0,1,6.6,3.492.562.562,0,1,0,.921-.646A9.359,9.359,0,0,0,8.874,0Zm.045,2.986a6.411,6.411,0,0,0-1.589.173A.562.562,0,1,0,7.59,4.255a5.438,5.438,0,0,1,6.668,5.058,32.421,32.421,0,0,1-.2,4.173.562.562,0,0,0,.5.622.5.5,0,0,0,.065,0,.563.563,0,0,0,.558-.5A33.715,33.715,0,0,0,15.383,9.3,6.533,6.533,0,0,0,8.919,2.989Z" transform="translate(0.007 -0.001)"/></svg>