<svg id="Group_533" data-name="Group 533" xmlns="http://www.w3.org/2000/svg" width="37.882" height="12.29" viewBox="0 0 37.882 12.29">
  <g id="Group_285" data-name="Group 285" transform="translate(0 0)">
    <path id="Path_856" data-name="Path 856" d="M56.293,64.06H53.2l1.932-11.873h3.091Z" transform="translate(-39.871 -51.974)" fill="#212741"/>
    <path id="Path_857" data-name="Path 857" d="M21.957,52.187,19.01,60.353l-.348-1.758h0l-1.04-5.339a1.323,1.323,0,0,0-1.466-1.069H11.284l-.057.2a11.547,11.547,0,0,1,3.233,1.358L17.146,64.06h3.221l4.918-11.873Z" transform="translate(-11.227 -51.975)" fill="#212741"/>
    <path id="Path_858" data-name="Path 858" d="M104.039,64.06h2.838L104.4,52.187h-2.485a1.421,1.421,0,0,0-1.427.885L95.881,64.06H99.1l.645-1.763h3.93Zm-3.4-4.2,1.624-4.443.914,4.443Z" transform="translate(-68.996 -51.975)" fill="#212741"/>
    <path id="Path_859" data-name="Path 859" d="M77.732,54.586l.441-2.55a8.922,8.922,0,0,0-2.78-.518c-1.534,0-5.176.671-5.176,3.93,0,3.068,4.275,3.106,4.275,4.716s-3.835,1.323-5.1.307l-.46,2.666a8.658,8.658,0,0,0,3.489.671c2.109,0,5.292-1.093,5.292-4.065,0-3.087-4.314-3.374-4.314-4.716S76.41,53.857,77.732,54.586Z" transform="translate(-50.606 -51.518)" fill="#212741"/>
  </g>
  <path id="Path_860" data-name="Path 860" d="M18.662,58.595l-1.04-5.339a1.323,1.323,0,0,0-1.466-1.069H11.284l-.057.2a11.984,11.984,0,0,1,4.588,2.3A9.26,9.26,0,0,1,18.662,58.595Z" transform="translate(-11.227 -51.975)" fill="#fe9914"/>
</svg>
