<svg xmlns="http://www.w3.org/2000/svg" width="817.565" height="273.163" viewBox="0 0 817.565 273.163">
  <g id="Group_8" data-name="Group 8" transform="translate(-54.832 -34.038)">
    <text id="Millimeter" transform="translate(360.397 238.218)" fill="#fff" font-size="115" font-family="OptimaLTStd, Optima LT Std"><tspan x="0" y="0">Milli</tspan><tspan y="0" fill="#ff5119">meter</tspan></text>
    <g id="Group_3" data-name="Group 3" transform="translate(54.831 34.038)">
      <path id="Rectangle_2" data-name="Rectangle 2" d="M6.821,0h0a0,0,0,0,1,0,0V148.6a0,0,0,0,1,0,0H0a0,0,0,0,1,0,0V6.821A6.821,6.821,0,0,1,6.821,0Z" transform="translate(90.028 62.28)" fill="#fff"/>
      <rect id="Rectangle_3" data-name="Rectangle 3" width="6.821" height="148.603" transform="translate(133.171 62.28)" fill="#fff"/>
      <path id="Rectangle_4" data-name="Rectangle 4" d="M0,0H0A6.821,6.821,0,0,1,6.821,6.821V148.6a0,0,0,0,1,0,0H0a0,0,0,0,1,0,0V0A0,0,0,0,1,0,0Z" transform="translate(176.315 62.28)" fill="#fff"/>
      <rect id="Rectangle_5" data-name="Rectangle 5" width="6.821" height="74.302" transform="translate(111.6 62.28)" fill="#fff"/>
      <rect id="Rectangle_6" data-name="Rectangle 6" width="6.821" height="74.302" transform="translate(154.743 62.28)" fill="#fff"/>
      <g id="Group_1" data-name="Group 1" transform="translate(0 0)">
        <path id="Path_1" data-name="Path 1" d="M-248.9,371.927c-75.311,0-136.582-61.271-136.582-136.581S-324.21,98.764-248.9,98.764s136.581,61.271,136.581,136.581S-173.589,371.927-248.9,371.927Zm0-266.444A130.011,130.011,0,0,0-378.762,235.345,130.009,130.009,0,0,0-248.9,365.208,130.008,130.008,0,0,0-119.037,235.345,130.009,130.009,0,0,0-248.9,105.483Z" transform="translate(385.481 -98.764)" fill="#fff"/>
      </g>
    </g>
  </g>
</svg>
