<svg xmlns="http://www.w3.org/2000/svg" width="19.279" height="16.871" viewBox="0 0 19.279 16.871"><defs><style>.a{fill:#ff5119;}</style></defs><path class="a" d="M51.22,39.437l-2.3-1.877V34.646a.226.226,0,0,0-.226-.226h-.753a.226.226,0,0,0-.226.226v1.933l-5.265-4.3a1.211,1.211,0,0,0-1.521,0l-8.768,7.156a.3.3,0,0,0-.044.423l.38.467a.3.3,0,0,0,.422.045l1.539-1.257v9.151a.6.6,0,0,0,.6.6h4.82a.6.6,0,0,0,.6-.6v-4.82l2.41.011v4.823a.6.6,0,0,0,.6.6l4.82-.012a.6.6,0,0,0,.6-.6V39.115l1.539,1.257a.3.3,0,0,0,.424-.044l.38-.467a.3.3,0,0,0-.046-.424Zm-3.506,8.232h0L44.1,47.68V42.854a.6.6,0,0,0-.6-.6l-3.615-.01a.6.6,0,0,0-.6.6v4.826H35.667V38.132l6.026-4.917,6.026,4.917Z" transform="translate(-32.054 -32.013)"/></svg>