<svg xmlns="http://www.w3.org/2000/svg" width="25.775" height="25.775" viewBox="0 0 25.775 25.775"><defs><style>.a{fill:none;}.b{fill:#212741;}</style></defs><path class="a" d="M0,0H25.775V25.775H0Z"/><path class="b" d="M20.7,13.792a8.369,8.369,0,0,0,.075-1.052,8.37,8.37,0,0,0-.075-1.052l2.266-1.772a.542.542,0,0,0,.129-.687L20.946,5.512a.54.54,0,0,0-.655-.236L17.617,6.349A7.846,7.846,0,0,0,15.8,5.3l-.408-2.846A.524.524,0,0,0,14.867,2h-4.3a.524.524,0,0,0-.526.451L9.637,5.3A8.251,8.251,0,0,0,7.822,6.349L5.148,5.276a.524.524,0,0,0-.655.236L2.345,9.228a.529.529,0,0,0,.129.687L4.74,11.687a8.517,8.517,0,0,0-.075,1.052,8.517,8.517,0,0,0,.075,1.052L2.474,15.564a.542.542,0,0,0-.129.687l2.148,3.716a.54.54,0,0,0,.655.236l2.674-1.074a7.846,7.846,0,0,0,1.815,1.052l.408,2.846a.524.524,0,0,0,.526.451h4.3a.524.524,0,0,0,.526-.451l.408-2.846a8.251,8.251,0,0,0,1.815-1.052L20.291,20.2a.524.524,0,0,0,.655-.236l2.148-3.716a.542.542,0,0,0-.129-.687ZM12.719,16.5a3.759,3.759,0,1,1,3.759-3.759A3.763,3.763,0,0,1,12.719,16.5Z" transform="translate(0.168 0.148)"/></svg>