<svg xmlns="http://www.w3.org/2000/svg" width="64.42" height="50.05" viewBox="0 0 64.42 50.05"><defs><style>.a{fill:none;}.b{fill:#ff5f00;}.c{fill:#eb001b;}.d{fill:#f79e1b;}</style></defs><g transform="translate(1.7)"><rect class="a" width="61.019" height="50.05"/><g transform="translate(-1.7 1.353)"><rect class="b" width="17.419" height="31.305" transform="translate(23.499 4.258)"/><path class="c" d="M39.76,35.065a19.874,19.874,0,0,1,7.6-15.655,19.908,19.908,0,1,0,0,31.3A19.875,19.875,0,0,1,39.76,35.065Z" transform="translate(-15.155 -15.152)"/><path class="d" d="M105.612,35.063A19.908,19.908,0,0,1,73.4,50.713a19.908,19.908,0,0,0,0-31.3,19.908,19.908,0,0,1,32.212,15.65Z" transform="translate(-41.191 -15.151)"/><path class="d" d="M127.888,72.834v-.641h.26V72.06h-.658v.133h.282v.641Zm1.277,0V72.06h-.2l-.232.553-.232-.553h-.177v.774h.144v-.581l.216.5h.149l.216-.5v.586Z" transform="translate(-65.37 -40.59)"/></g></g></svg>