<svg xmlns="http://www.w3.org/2000/svg" width="44.105" height="36.176" viewBox="0 0 44.105 36.176"><defs><style>.a{fill:none;}.b{fill:#212741;}.c{fill:#ff5f00;}.d{fill:#eb001b;}.e{fill:#f79e1b;}</style></defs><rect class="a" width="44.105" height="36.176"/><path class="b" d="M25.745,95.886v-1.8a1.07,1.07,0,0,0-1.13-1.142,1.112,1.112,0,0,0-1.009.511,1.055,1.055,0,0,0-.949-.511.949.949,0,0,0-.841.427v-.355H21.19v2.872h.631v-1.58a.673.673,0,0,1,.7-.763c.415,0,.625.27.625.757v1.6h.631V94.306a.676.676,0,0,1,.7-.763c.427,0,.631.27.631.757v1.6Zm9.335-2.872H34.052v-.871h-.631v.871H32.85v.571h.583v1.322c0,.667.258,1.064,1,1.064a1.466,1.466,0,0,0,.781-.222l-.18-.535a1.154,1.154,0,0,1-.553.162c-.3,0-.415-.192-.415-.481v-1.31h1.022Zm5.33-.072a.847.847,0,0,0-.757.421v-.349h-.619v2.872h.625v-1.61c0-.475.2-.739.6-.739a1.019,1.019,0,0,1,.391.072l.192-.6a1.337,1.337,0,0,0-.445-.078Zm-8.058.3a2.148,2.148,0,0,0-1.172-.3c-.727,0-1.2.348-1.2.919,0,.469.349.757.991.847l.3.042c.343.048.5.138.5.3,0,.222-.228.349-.655.349a1.529,1.529,0,0,1-.955-.3l-.3.487a2.073,2.073,0,0,0,1.244.373c.829,0,1.31-.391,1.31-.937s-.379-.769-1-.859l-.3-.042c-.27-.036-.487-.09-.487-.282s.2-.336.547-.336a1.851,1.851,0,0,1,.9.246Zm16.738-.3a.847.847,0,0,0-.757.421v-.349h-.619v2.872h.625v-1.61c0-.475.2-.739.6-.739a1.019,1.019,0,0,1,.391.072l.192-.6a1.337,1.337,0,0,0-.445-.078Zm-8.052,1.5a1.451,1.451,0,0,0,1.532,1.5A1.5,1.5,0,0,0,43.6,95.6l-.3-.5a1.262,1.262,0,0,1-.751.258.922.922,0,0,1,0-1.839,1.262,1.262,0,0,1,.751.258l.3-.5a1.5,1.5,0,0,0-1.034-.342,1.451,1.451,0,0,0-1.532,1.5Zm5.853,0v-1.43h-.625v.349a1.091,1.091,0,0,0-.9-.421,1.5,1.5,0,0,0,0,3,1.091,1.091,0,0,0,.9-.421v.349h.625Zm-2.325,0a.862.862,0,1,1,.235.65A.868.868,0,0,1,44.564,94.444Zm-7.541-1.5a1.5,1.5,0,1,0,.042,3,1.746,1.746,0,0,0,1.193-.391l-.3-.463a1.367,1.367,0,0,1-.835.3.8.8,0,0,1-.859-.7H38.4v-.24a1.365,1.365,0,0,0-1.364-1.5Zm0,.559a.712.712,0,0,1,.727.7h-1.5a.739.739,0,0,1,.763-.7Zm15.656.949V91.86h-.6v1.5a1.091,1.091,0,0,0-.9-.421,1.5,1.5,0,1,0,0,3,1.091,1.091,0,0,0,.9-.421v.349h.6Zm1.043,1.018a.289.289,0,0,1,.27.171.279.279,0,0,1,0,.222.287.287,0,0,1-.156.15.282.282,0,0,1-.114.024.3.3,0,0,1-.27-.174.282.282,0,0,1,0-.222.292.292,0,0,1,.279-.171Zm0,.508a.213.213,0,0,0,.087-.018.225.225,0,0,0,.069-.048.216.216,0,0,0-.069-.349.217.217,0,0,0-.087-.018.226.226,0,0,0-.087.018.219.219,0,0,0-.072.048.218.218,0,0,0,.168.367Zm.018-.358a.12.12,0,0,1,.078.024.075.075,0,0,1,.027.063.072.072,0,0,1-.021.054.105.105,0,0,1-.063.027l.087.1h-.069l-.081-.1h-.027v.1h-.057v-.264Zm-.066.051v.072h.066a.063.063,0,0,0,.036,0,47.946,47.946,0,0,1,0-.054.063.063,0,0,0-.036,0Zm-3.3-1.22a.862.862,0,1,1,.235.65A.868.868,0,0,1,50.369,94.45Zm-21.1,0V93.014h-.625v.349a1.091,1.091,0,0,0-.9-.421,1.5,1.5,0,0,0,0,3,1.091,1.091,0,0,0,.9-.421v.349h.625Zm-2.325,0a.368.368,0,1,1-.006,0Z" transform="translate(-14.824 -64.262)"/><g transform="translate(4.553 4.552)"><rect class="c" width="9.464" height="17.008" transform="translate(12.767 2.313)"/><path class="d" d="M28.523,25.972a10.8,10.8,0,0,1,4.131-8.505,10.816,10.816,0,1,0,0,17.008A10.8,10.8,0,0,1,28.523,25.972Z" transform="translate(-15.155 -15.153)"/><path class="e" d="M90.9,25.969a10.816,10.816,0,0,1-17.5,8.5,10.816,10.816,0,0,0,0-17.008,10.816,10.816,0,0,1,17.5,8.5Z" transform="translate(-55.901 -15.151)"/><path class="e" d="M127.706,72.481v-.349h.141V72.06h-.358v.072h.153v.349Zm.694,0V72.06h-.108l-.126.3-.126-.3h-.1v.421h.078v-.315l.117.273h.081l.117-.273v.318Z" transform="translate(-93.74 -54.962)"/></g></svg>