<svg xmlns="http://www.w3.org/2000/svg" width="15.533" height="17.752" viewBox="0 0 15.533 17.752"><defs><style>.a{fill:#212741;}</style></defs><path class="a" d="M7.767,14.561a.7.7,0,0,1-.693-.693V11.649a.693.693,0,0,1,1.387,0v2.219A.7.7,0,0,1,7.767,14.561ZM15.533,9.43v6.657a1.665,1.665,0,0,1-1.664,1.664H1.664A1.665,1.665,0,0,1,0,16.087V9.43A1.665,1.665,0,0,1,1.664,7.766h.555V5.547a5.548,5.548,0,1,1,11.1.052V7.766h.555A1.665,1.665,0,0,1,15.533,9.43ZM3.329,7.766H12.2V5.547a4.438,4.438,0,1,0-8.876,0Zm11.1,8.321V9.43a.556.556,0,0,0-.555-.555H1.664a.556.556,0,0,0-.555.555v6.657a.556.556,0,0,0,.555.555h12.2A.556.556,0,0,0,14.424,16.087Z" transform="translate(0 0.001)"/></svg>