<svg xmlns="http://www.w3.org/2000/svg" width="140.395" height="44.157" viewBox="0 0 140.395 44.157"><defs><style>.a,.c{fill:#212741;}.a{font-size:19px;font-family:OptimaLTStd-Medium, Optima LT Std;font-weight:500;}.b{fill:#ff5119;}</style></defs><g transform="translate(-54.831 -34.038)"><text class="a" transform="translate(104.226 67.142)"><tspan x="0" y="0">Milli</tspan><tspan class="b" y="0">meter</tspan></text><g transform="translate(54.831 34.038)"><path class="c" d="M1.1,0h0a0,0,0,0,1,0,0V24.022a0,0,0,0,1,0,0H0a0,0,0,0,1,0,0V1.1A1.1,1.1,0,0,1,1.1,0Z" transform="translate(14.553 10.068)"/><rect class="c" width="1.103" height="24.022" transform="translate(21.527 10.068)"/><path class="c" d="M0,0H0A1.1,1.1,0,0,1,1.1,1.1V24.022a0,0,0,0,1,0,0H0a0,0,0,0,1,0,0V0A0,0,0,0,1,0,0Z" transform="translate(28.501 10.068)"/><rect class="c" width="1.103" height="12.011" transform="translate(18.04 10.068)"/><rect class="c" width="1.103" height="12.011" transform="translate(25.014 10.068)"/><g transform="translate(0 0)"><path class="c" d="M-363.4,142.921a22.1,22.1,0,0,1-22.079-22.079A22.1,22.1,0,0,1-363.4,98.764a22.1,22.1,0,0,1,22.078,22.079A22.1,22.1,0,0,1-363.4,142.921Zm0-43.071a21.016,21.016,0,0,0-20.992,20.992A21.016,21.016,0,0,0-363.4,141.835a21.016,21.016,0,0,0,20.992-20.992A21.016,21.016,0,0,0-363.4,99.85Z" transform="translate(385.481 -98.764)"/></g></g></g></svg>