<svg xmlns="http://www.w3.org/2000/svg" width="31.581" height="22.106" viewBox="0 0 31.581 22.106"><defs><style>.a{fill:#212741;}</style></defs><path class="a" d="M15.79,38.343c-2.18,0-3.948,2.13-3.948,4.757s1.767,4.757,3.948,4.757,3.948-2.129,3.948-4.757S17.97,38.343,15.79,38.343Zm14.861-5.235A14.612,14.612,0,0,0,24.907,32c-6.078,0-12.155,3.076-18.233,3.076A14.971,14.971,0,0,1,2.1,34.4a1.687,1.687,0,0,0-.511-.08A1.57,1.57,0,0,0,0,35.889V51.544A1.569,1.569,0,0,0,.93,53a14.6,14.6,0,0,0,5.744,1.109c6.078,0,12.155-3.077,18.233-3.077a14.971,14.971,0,0,1,4.572.677,1.687,1.687,0,0,0,.511.08,1.57,1.57,0,0,0,1.591-1.57V34.562a1.571,1.571,0,0,0-.93-1.454Zm-1.439,13.2a3.152,3.152,0,0,0-2.683,2.442c-.533-.045-1.064-.093-1.622-.093a39.681,39.681,0,0,0-9.7,1.611,35.641,35.641,0,0,1-8.535,1.466q-.594,0-1.16-.046a3.157,3.157,0,0,0-3.145-3.04V39.929a3.161,3.161,0,0,0,3.1-2.554c.4.025.793.069,1.209.069a39.677,39.677,0,0,0,9.7-1.611,35.656,35.656,0,0,1,8.535-1.466,13.978,13.978,0,0,1,1.55.094,3.152,3.152,0,0,0,2.755,3.048Z" transform="translate(0 -32)"/></svg>