<svg xmlns="http://www.w3.org/2000/svg" width="23.857" height="16.7" viewBox="0 0 23.857 16.7"><defs><style>.a{fill:#212741;}</style></defs><path class="a" d="M11.929,36.175c-1.976,0-3.579,1.869-3.579,4.175s1.6,4.175,3.579,4.175,3.579-1.869,3.579-4.175S13.9,36.175,11.929,36.175Zm0,7.157A2.738,2.738,0,0,1,9.543,40.35a2.738,2.738,0,0,1,2.386-2.982,2.738,2.738,0,0,1,2.386,2.982A2.738,2.738,0,0,1,11.929,43.332ZM23.155,32.837A11.039,11.039,0,0,0,18.815,32c-4.591,0-9.182,2.324-13.774,2.324a15.934,15.934,0,0,1-3.84-.572A1.186,1.186,0,0,0,0,34.938V46.764a1.185,1.185,0,0,0,.7,1.1,11.033,11.033,0,0,0,4.339.838c4.591,0,9.182-2.324,13.774-2.324a15.929,15.929,0,0,1,3.84.572,1.186,1.186,0,0,0,1.2-1.186V33.936A1.186,1.186,0,0,0,23.155,32.837ZM1.228,34.955a11.962,11.962,0,0,0,2.336.48A2.385,2.385,0,0,1,1.22,37.688Zm-.035,11.81,0-1.586A2.385,2.385,0,0,1,3.56,47.394a9.167,9.167,0,0,1-2.367-.63Zm21.436-1.019a11.947,11.947,0,0,0-2.329-.48,2.383,2.383,0,0,1,2.337-2.181Zm.012-3.86a3.576,3.576,0,0,0-3.526,3.3,27.966,27.966,0,0,0-7.478,1.188A24.983,24.983,0,0,1,4.763,47.49,3.585,3.585,0,0,0,1.2,43.981l.015-5.095a3.578,3.578,0,0,0,3.533-3.374,27.994,27.994,0,0,0,7.47-1.188,25.011,25.011,0,0,1,6.867-1.114,3.589,3.589,0,0,0,3.569,3.581l-.015,5.095Zm.019-6.292a2.388,2.388,0,0,1-2.37-2.288,9.167,9.167,0,0,1,2.375.63Z" transform="translate(0 -32)"/></svg>