<svg xmlns="http://www.w3.org/2000/svg" width="22.942" height="17.206" viewBox="0 0 22.942 17.206"><defs><style>.a{fill:#212741;}</style></defs><path class="a" d="M15.772,74.346a.719.719,0,0,1-.717.717H8.6v4.207a.358.358,0,0,1-.609.255L1.649,73.114a.717.717,0,0,1,0-1.017l6.345-6.412a.357.357,0,0,1,.609.255v4.207h6.452a.719.719,0,0,1,.717.717v3.482m1.434,0V70.865a2.151,2.151,0,0,0-2.151-2.151H10.037V65.94a1.791,1.791,0,0,0-3.056-1.268L.632,71.08a2.153,2.153,0,0,0,0,3.047l6.349,6.412a1.792,1.792,0,0,0,3.056-1.268V76.5h5.018A2.154,2.154,0,0,0,17.206,74.346Zm5.735,4.709v-12.9A2.151,2.151,0,0,0,20.791,64H14.876a.539.539,0,0,0-.538.538V64.9a.539.539,0,0,0,.538.538h5.915a.719.719,0,0,1,.717.717v12.9a.719.719,0,0,1-.717.717H14.876a.539.539,0,0,0-.538.538v.358a.539.539,0,0,0,.538.538h5.915A2.151,2.151,0,0,0,22.942,79.056Z" transform="translate(0 -64)"/></svg>