<svg xmlns="http://www.w3.org/2000/svg" width="16" height="18.286" viewBox="0 0 16 18.286"><defs><style>.a{fill:#c9c9c9;}</style></defs><path class="a" d="M9.571,14.857h.857a.429.429,0,0,0,.429-.429V6.714a.429.429,0,0,0-.429-.429H9.571a.429.429,0,0,0-.429.429v7.714A.429.429,0,0,0,9.571,14.857Zm5.857-12H12.485L11.271.832A1.714,1.714,0,0,0,9.8,0H6.2A1.714,1.714,0,0,0,4.73.832L3.515,2.857H.571A.571.571,0,0,0,0,3.429V4a.571.571,0,0,0,.571.571h.571v12a1.714,1.714,0,0,0,1.714,1.714H13.143a1.714,1.714,0,0,0,1.714-1.714v-12h.571A.571.571,0,0,0,16,4V3.429A.571.571,0,0,0,15.429,2.857ZM6.137,1.818a.214.214,0,0,1,.184-.1H9.679a.214.214,0,0,1,.184.1l.624,1.039H5.514Zm7.006,14.753H2.857v-12H13.143ZM5.571,14.857h.857a.429.429,0,0,0,.429-.429V6.714a.429.429,0,0,0-.429-.429H5.571a.429.429,0,0,0-.429.429v7.714A.429.429,0,0,0,5.571,14.857Z"/></svg>